# AST/ASF file generated using VICON BodyLanguage
# -----------------------------------------------
:version 1.10
:name VICON
:units
  mass 1.0
  length 0.45
  angle deg
:documentation
   .ast/.asf automatically generated from VICON data using
   VICON BodyBuilder and BodyLanguage model FoxedUp or BRILLIANT.MOD
:root
   order TX TY TZ RX RY RZ
   axis XYZ
   position 0 0 0  
   orientation 0 0 0 
:bonedata
  begin
     id 1 
     name lhipjoint
     direction 0.707368 -0.647095 0.284426 
     length 2.60678 
     axis 0 0 0  XYZ
  end
  begin
     id 2 
     name lfemur
     direction 0.34202 -0.939693 0  
     length 6.63812  
     axis 0 0 20  XYZ
    dof rx ry rz
    limits (-160.0 20.0)
           (-70.0 70.0)
           (-60.0 70.0)
  end
  begin
     id 3 
     name ltibia
     direction 0.34202 -0.939693 0   
     length 7.51178   
     axis 0 0 20   XYZ
    dof rx
    limits (-10.0 170.0)
  end
  begin
     id 4 
     name lfoot
     direction 0.121251 -0.333133 0.935051   
     length 1.83716   
     axis -90 7.62852e-016 20   XYZ
    dof rx rz
    limits (-45.0 90.0)
           (-70.0 20.0)
  end
  begin
     id 5 
     name ltoes
     direction 1.53611e-011 -4.21962e-011 1   
     length 0.916133   
     axis -90 7.62852e-016 20   XYZ
    dof rx
    limits (-90.0 20.0)
  end
  begin
     id 6 
     name rhipjoint
     direction -0.692419 -0.660507 0.290321   
     length 2.55385  
     axis 0 0 0  XYZ 
  end
  begin
     id 7 
     name rfemur
     direction -0.34202 -0.939693 0   
     length 7.29079   
     axis 0 0 -20   XYZ
    dof rx ry rz
    limits (-160.0 20.0)
           (-70.0 70.0)
           (-70.0 60.0)
  end
  begin
     id 8 
     name rtibia
     direction -0.34202 -0.939693 0   
     length 7.47143   
     axis 0 0 -20   XYZ
    dof rx
    limits (-10.0 170.0)
 end
 begin
     id 9 
     name rfoot
     direction -0.119907 -0.329441 0.936532   
     length 1.79439  
     axis -90 -7.62852e-016 -20   XYZ
    dof rx rz
    limits (-45.0 90.0)
           (-20.0 70.0)
  end
  begin
     id 10 
     name rtoes
     direction -1.53571e-011 -4.21961e-011 1   
     length 0.896039   
     axis -90 -7.62852e-016 -20   XYZ
    dof rx
    limits (-90.0 20.0)
  end
  begin
     id 11 
     name lowerback
     direction 0.0367721 0.992912 -0.113016   
     length 1.73542   
     axis 0 0 0   XYZ
    dof rx ry rz
    limits (-20.0 45.0)
           (-30.0 30.0)
           (-30.0 30.0)
  end
  begin
     id 12 
     name upperback
     direction -0.000314626 0.990678 0.136227   
     length 1.7514   
     axis 0 0 0   XYZ
    dof rx ry rz
    limits (-20.0 45.0)
           (-30.0 30.0)
           (-30.0 30.0)
  end
  begin
     id 13 
     name thorax
     direction -0.0226159 0.981151 0.191917   
     length 1.71471   
     axis 0 0 0   XYZ
    dof rx ry rz
    limits (-20.0 45.0)
           (-30.0 30.0)
           (-30.0 30.0)
  end
  begin
     id 14 
     name lowerneck
     direction 0.0219333 0.998071 0.0580739   
     length 1.65882   
     axis 0 0 0   XYZ
    dof rx ry rz
    limits (-20.0 45.0)
           (-30.0 30.0)
           (-30.0 30.0)
  end
  begin
     id 15 
     name upperneck
     direction 0.0384529 0.980058 -0.194957   
     length 1.6612   
     axis 0 0 0   XYZ
    dof rx ry rz
    limits (-20.0 45.0)
           (-30.0 30.0)
           (-30.0 30.0)
  end
  begin
     id 16
     name head
     direction 0.00592123 0.997421 -0.0715234  
     length 1.68077  
     axis 0 0 0   XYZ
    dof rx ry rz
    limits (-20.0 45.0)
           (-30.0 30.0)
           (-30.0 30.0)
  end
  begin
     id 17 
     name lclavicle
     direction 0.904803 0.417826 0.0821728  
     length 3.42227  
     axis 0 0 0   XYZ
    dof ry rz
    limits (-20.0 10.0)
           (0.0 20.0)
  end
  begin
     id 18 
     name lhumerus
     direction 1 -4.48965e-011 -2.68786e-027   
     length 5.11878   
     axis -180 -30 -90   XYZ
    dof rx ry rz
    limits (-60.0 90.0)
           (-90.0 90.0)
           (-90.0 90.0)
  end
  begin
     id 19
     name lradius
     direction 1 -4.48965e-011 2.61168e-028   
     length 3.59971   
     axis -180 -30 -90   XYZ
    dof rx
    limits (-10.0 170.0)
  end
  begin
     id 20
     name lwrist
     direction 1 -4.48965e-011 1.58672e-027   
     length 1.79985   
     axis -1.65735e-015 90 90   XYZ
    dof ry
    limits (-180.0 0.0)
 end
  begin
     id 21 
     name lhand
     direction 1 -4.48942e-011 3.17344e-027   
     length 0.62877   
     axis -2.02492e-015 90 90   XYZ
    dof rx rz
    limits (-90.0 90.0)
           (-45.0 45.0)
  end
  begin
     id 22 
     name lfingers
     direction 1 -4.49011e-011 6.34687e-027   
     length 0.506931   
     axis -4.04985e-015 90 90   XYZ
    dof rx
    limits (0.0 90.0)
  end
  begin
     id 23
     name lthumb
     direction 0.707107 -6.34982e-011 0.707107   
     length 0.727854   
     axis -90 45 2.85299e-015   XYZ
    dof rx rz
    limits (-45.0 45.0)
           (-45.0 45.0)
  end
  begin
     id 24 
     name rclavicle
     direction -0.945647 0.32488 0.0143075   
     length 3.52737  
     axis 0 0 0   XYZ 
    dof ry rz
    limits (-10.0 20.0)
           (-20.0 0.0)
  end
  begin
     id 25 
     name rhumerus
     direction -1 -4.48962e-011 1.92182e-027  
     length 5.4902   
     axis -180 30 90   XYZ
    dof rx ry rz
    limits (-90.0 60.0)
           (-90.0 90.0)
           (-90.0 90.0)
  end
  begin
     id 26 
     name rradius
     direction -1 -4.48967e-011 -5.97193e-028   
     length 3.20659   
     axis -180 30 90   XYZ
    dof rx
    limits (-10.0 170.0)
  end
  begin
     id 27 
     name rwrist
     direction -1 -4.48964e-011 1.58672e-027   
     length 1.6033   
     axis -1.65735e-015 -90 -90   XYZ
    dof ry
    limits (-180.0 0.0)
  end
  begin
     id 28
     name rhand
     direction -1 -4.49006e-011 3.17344e-027   
     length 0.691885   
     axis -2.02492e-015 -90 -90   XYZ
    dof rx rz
    limits (-90.0 90.0)
           (-45.0 45.0)
  end
  begin
     id 29
     name rfingers
     direction -1 -4.48908e-011 6.34687e-027   
     length 0.557815   
     axis -4.04985e-015 -90 -90   XYZ
    dof rx
    limits (0.0 90.0)
  end
  begin
     id 30
     name rthumb
     direction -0.707107 -6.34999e-011 0.707107   
     length 0.800915   
     axis -90 -45 -2.85299e-015   XYZ
    dof rx rz
    limits (-45.0 45.0)
           (-45.0 45.0)
  end
:hierarchy
  begin
    root lhipjoint rhipjoint lowerback
    lhipjoint lfemur
    lfemur ltibia
    ltibia lfoot
    lfoot ltoes
    rhipjoint rfemur
    rfemur rtibia
    rtibia rfoot
    rfoot rtoes
    lowerback upperback
    upperback thorax
    thorax lowerneck lclavicle rclavicle
    lowerneck upperneck
    upperneck head
    lclavicle lhumerus
    lhumerus lradius
    lradius lwrist
    lwrist lhand lthumb
    lhand lfingers
    rclavicle rhumerus
    rhumerus rradius
    rradius rwrist
    rwrist rhand rthumb
    rhand rfingers
  end

#!OML:ASF I:\Actors\actors\Patient Classification 1\Patient 1\Session 1\Subject1.ASF
:FULLY-SPECIFIED
:DEGREES
144
root 0.0432538 17.4913 8.53268 7.6521 4.14356 -9.68961
lowerback -0.157706 1.44502 6.55013
upperback -9.30231 2.43191 1.52452
thorax -9.60104 0.746195 -2.22214
lowerneck -4.22825 -4.91468 -3.17949
upperneck 15.844 -7.93802 9.72034
head 5.99254 -3.39652 3.06537
rclavicle -6.95746e-015 -8.34896e-015
rhumerus -49.9127 28.1525 -75.3455
rradius 45.2844
rwrist -20.7968
rhand 55.937 -41.4
rfingers 7.12502
rthumb 73.2509 -22.3341
lclavicle -6.95746e-015 -8.34896e-015
lhumerus -51.9187 -31.3577 76.3301
lradius 38.3064
lwrist 33.0559
lhand 17.4991 -9.21904
lfingers 7.12502
lthumb 42.1985 15.3041
rfemur -1.42473 24.4623 26.2255
rtibia 3.09769
rfoot -14.7556 -27.8288
rtoes 5.23584
lfemur 4.36807 -41.395 -8.92147
ltibia -4.9452
lfoot -14.1814 49.018
ltoes 4.73578
145
root 0.0433238 17.4946 8.53502 7.60998 4.18427 -9.65353
lowerback -0.125451 1.4428 6.51572
upperback -9.30981 2.42773 1.48916
thorax -9.62814 0.744163 -2.24151
lowerneck -4.47556 -4.94247 -3.22147
upperneck 16.4147 -8.03196 9.75644
head 6.22521 -3.41667 3.07119
rclavicle 1.09332e-015 -4.8901e-014
rhumerus -49.9764 31.3713 -74.4264
rradius 45.3909
rwrist -23.5407
rhand 56.1195 -42.207
rfingers 7.12502
rthumb 73.3299 -22.5933
lclavicle 1.09332e-015 -4.8901e-014
lhumerus -51.9019 -33.3545 74.7946
lradius 38.9539
lwrist 34.086
lhand 18.1121 -8.98515
lfingers 7.12502
lthumb 42.7725 15.3407
rfemur -1.38285 24.3835 26.2026
rtibia 3.11983
rfoot -14.7982 -27.786
rtoes 5.36856
lfemur 4.44514 -41.5004 -9.02306
ltibia -4.94994
lfoot -14.1987 49.0747
ltoes 4.66826
146
root 0.0438739 17.4976 8.53579 7.5916 4.21131 -9.68608
lowerback -0.105156 1.46287 6.586
upperback -9.31886 2.45756 1.44706
thorax -9.64465 0.750289 -2.32823
lowerneck -4.66167 -4.98653 -3.2454
upperneck 16.8715 -8.13846 9.78305
head 6.41221 -3.44764 3.07146
rclavicle -8.74653e-015 -5.56597e-015
rhumerus -49.8308 33.4336 -72.8375
rradius 45.6164
rwrist -24.7293
rhand 56.7779 -42.8881
rfingers 7.12502
rthumb 73.6017 -21.254
lclavicle -8.74653e-015 -5.56597e-015
lhumerus -51.8024 -35.3255 73.1056
lradius 39.6635
lwrist 34.8481
lhand 18.6891 -8.68648
lfingers 7.12502
lthumb 43.312 15.4483
rfemur -1.40162 24.2878 26.2346
rtibia 3.17945
rfoot -14.8396 -27.6879
rtoes 5.48771
lfemur 4.47176 -41.5716 -9.00919
ltibia -4.94767
lfoot -14.2333 49.1157
ltoes 4.63222
147
root 0.0443811 17.5002 8.5365 7.58101 4.24356 -9.69686
lowerback -0.0659887 1.48736 6.66595
upperback -9.32432 2.49376 1.38478
thorax -9.6666 0.757561 -2.44291
lowerneck -4.90216 -5.00922 -3.23306
upperneck 17.3392 -8.21585 9.78342
head 6.60877 -3.4618 3.05835
rclavicle -1.22253e-014 -2.18663e-014
rhumerus -49.4564 34.8039 -70.7957
rradius 45.856
rwrist -25.0627
rhand 57.4772 -43.2733
rfingers 7.12502
rthumb 73.8666 -19.4209
lclavicle -1.22253e-014 -2.18663e-014
lhumerus -51.5808 -37.1979 71.2291
lradius 40.3962
lwrist 35.3896
lhand 19.398 -8.49407
lfingers 7.12502
lthumb 43.9738 15.3986
rfemur -1.4242 24.1896 26.2388
rtibia 3.24432
rfoot -14.8662 -27.6042
rtoes 5.42366
lfemur 4.4553 -41.5421 -8.99038
ltibia -4.92966
lfoot -14.1614 49.054
ltoes 4.47613
148
root 0.0443219 17.5035 8.53749 7.58184 4.28821 -9.65809
lowerback -0.00149833 1.51078 6.68555
upperback -9.34789 2.52787 1.3112
thorax -9.72486 0.766569 -2.53716
lowerneck -5.1905 -5.01921 -3.2281
upperneck 17.8709 -8.28098 9.78196
head 6.83471 -3.46681 3.04603
rclavicle 1.22253e-014 -3.10104e-014
rhumerus -48.8052 35.4142 -68.2768
rradius 46.0601
rwrist -24.485
rhand 58.4583 -43.4845
rfingers 7.12502
rthumb 74.1948 -16.4004
lclavicle 1.22253e-014 -3.10104e-014
lhumerus -51.1907 -38.9229 69.2266
lradius 41.0593
lwrist 35.7491
lhand 20.1217 -8.20781
lfingers 7.12502
lthumb 44.6484 15.4289
rfemur -1.43308 24.1495 26.1971
rtibia 3.2802
rfoot -14.8647 -27.6218
rtoes 5.25925
lfemur 4.43562 -41.5643 -9.03005
ltibia -4.91518
lfoot -14.1227 49.0343
ltoes 4.40636
149
root 0.0443162 17.5071 8.53799 7.56644 4.33867 -9.61904
lowerback 0.0875033 1.51661 6.68753
upperback -9.36798 2.54041 1.25242
thorax -9.7969 0.766655 -2.60512
lowerneck -5.59181 -5.01227 -3.20495
upperneck 18.5619 -8.33436 9.74651
head 7.13091 -3.45868 3.01874
rclavicle 7.05686e-015 3.10104e-014
rhumerus -47.8594 35.3585 -65.3592
rradius 46.2195
rwrist -23.0677
rhand 59.9239 -43.9344
rfingers 7.12502
rthumb 74.584 -11.7908
lclavicle 7.05686e-015 3.10104e-014
lhumerus -50.6283 -40.4272 67.0456
lradius 41.6711
lwrist 36.0449
lhand 20.8115 -7.82774
lfingers 7.12502
lthumb 45.2903 15.5566
rfemur -1.40327 24.1168 26.1648
rtibia 3.26867
rfoot -14.8555 -27.6539
rtoes 5.25185
lfemur 4.43464 -41.5965 -9.08343
ltibia -4.89472
lfoot -14.1908 49.0022
ltoes 4.60252
150
root 0.0434778 17.5106 8.53674 7.52034 4.37047 -9.59902
lowerback 0.23565 1.49977 6.68702
upperback -9.36889 2.52714 1.20567
thorax -9.88577 0.754436 -2.65866
lowerneck -5.97605 -5.02133 -3.2136
upperneck 19.0942 -8.40377 9.77391
head 7.38001 -3.46091 3.01589
rclavicle 2.72335e-014 -3.18055e-014
rhumerus -46.9908 35.9076 -62.856
rradius 46.3331
rwrist -22.112
rhand 60.8787 -43.8635
rfingers 7.12502
rthumb 74.7687 -8.30059
lclavicle 2.72335e-014 -3.18055e-014
lhumerus -49.8145 -41.6451 64.5547
lradius 42.2167
lwrist 36.4635
lhand 21.5438 -7.44526
lfingers 7.12502
lthumb 45.9704 15.6616
rfemur -1.3312 24.1153 26.1741
rtibia 3.23555
rfoot -14.8392 -27.6884
rtoes 5.27234
lfemur 4.4636 -41.5943 -9.13531
ltibia -4.86744
lfoot -14.1056 48.9625
ltoes 4.53182
151
root 0.0418944 17.5141 8.53362 7.45203 4.39723 -9.61234
lowerback 0.450564 1.48927 6.73099
upperback -9.36289 2.52831 1.13299
thorax -10.0036 0.743178 -2.76792
lowerneck -6.49468 -5.03974 -3.15231
upperneck 19.7604 -8.50954 9.79792
head 7.69954 -3.46651 2.99462
rclavicle 1.48095e-014 8.74653e-015
rhumerus -46.2577 36.8602 -60.7304
rradius 46.4125
rwrist -21.6915
rhand 61.1471 -43.1378
rfingers 7.12502
rthumb 74.8105 -6.5998
lclavicle 1.48095e-014 8.74653e-015
lhumerus -48.7864 -42.7725 61.8203
lradius 42.8187
lwrist 37.0432
lhand 22.0399 -6.95774
lfingers 7.12502
lthumb 46.4305 15.9554
rfemur -1.24485 24.1293 26.2362
rtibia 3.2164
rfoot -14.8804 -27.7242
rtoes 5.42285
lfemur 4.49776 -41.4842 -9.13202
ltibia -4.87009
lfoot -13.8505 48.8584
ltoes 4.12608
152
root 0.0399339 17.5173 8.52862 7.38167 4.42612 -9.64621
lowerback 0.702868 1.51645 6.80153
upperback -9.36321 2.58368 1.03369
thorax -10.1441 0.753778 -2.92663
lowerneck -7.17576 -5.13568 -3.01476
upperneck 20.6207 -8.72889 9.68607
head 8.11603 -3.51959 2.90126
rclavicle 1.98785e-015 1.98785e-014
rhumerus -45.5039 37.4718 -58.5604
rradius 46.4462
rwrist -21.2109
rhand 61.1671 -42.3586
rfingers 7.12502
rthumb 74.8134 -5.74773
lclavicle 1.98785e-015 1.98785e-014
lhumerus -47.4076 -43.8158 58.865
lradius 43.3689
lwrist 37.7448
lhand 22.5772 -6.64957
lfingers 7.12502
lthumb 46.9279 16.0483
rfemur -1.18695 24.0986 26.3122
rtibia 3.22414
rfoot -14.9129 -27.7237
rtoes 5.46062
lfemur 4.48639 -41.2658 -9.05323
ltibia -4.87032
lfoot -13.6449 48.6293
ltoes 3.84737
153
root 0.0366629 17.5197 8.52232 7.34205 4.43608 -9.69894
lowerback 0.960334 1.56994 6.85397
upperback -9.38777 2.67773 0.95924
thorax -10.313 0.784411 -3.05328
lowerneck -7.81764 -5.22986 -2.84896
upperneck 21.4255 -8.92194 9.46248
head 8.50274 -3.57036 2.76751
rclavicle -5.76476e-015 3.10104e-014
rhumerus -44.6543 37.8483 -56.2695
rradius 46.4691
rwrist -20.7165
rhand 61.1187 -41.6815
rfingers 7.12502
rthumb 74.8063 -5.24674
lclavicle -5.76476e-015 3.10104e-014
lhumerus -45.7095 -44.6256 55.823
lradius 43.6795
lwrist 38.509
lhand 23.1459 -6.55227
lfingers 7.12502
lthumb 47.4536 15.9115
rfemur -1.18831 24.0813 26.3903
rtibia 3.24007
rfoot -14.8263 -27.7315
rtoes 5.26739
lfemur 4.40662 -41.069 -8.91249
ltibia -4.82465
lfoot -13.578 48.4121
ltoes 3.75835
154
root 0.0330289 17.5214 8.51662 7.32611 4.4365 -9.74304
lowerback 1.2143 1.61148 6.85864
upperback -9.41975 2.75705 0.93441
thorax -10.4933 0.813725 -3.0997
lowerneck -8.41238 -5.30069 -2.79591
upperneck 22.1291 -9.07464 9.32822
head 8.85658 -3.60725 2.68618
rclavicle 1.0635e-014 -2.22639e-014
rhumerus -43.6569 38.1241 -53.82
rradius 46.5156
rwrist -20.4019
rhand 61.3813 -40.9458
rfingers 7.12502
rthumb 74.8432 -3.55276
lclavicle 1.0635e-014 -2.22639e-014
lhumerus -43.9351 -45.1844 52.8635
lradius 43.9034
lwrist 39.1484
lhand 23.3759 -6.24068
lfingers 7.12502
lthumb 47.666 16.1265
rfemur -1.21406 24.0861 26.4448
rtibia 3.25728
rfoot -14.7724 -27.7277
rtoes 5.31111
lfemur 4.32909 -40.9157 -8.78634
ltibia -4.80364
lfoot -13.497 48.2675
ltoes 3.62708
155
root 0.0306227 17.5233 8.51134 7.31642 4.43494 -9.75298
lowerback 1.46493 1.63944 6.83018
upperback -9.43098 2.8155 0.92557
thorax -10.652 0.837639 -3.10875
lowerneck -8.89756 -5.32673 -2.89838
upperneck 22.5518 -9.13841 9.32711
head 9.10336 -3.61529 2.68647
rclavicle 3.55825e-014 -1.59028e-015
rhumerus -42.434 38.196 -51.228
rradius 46.5083
rwrist -20.2581
rhand 62.0732 -40.7071
rfingers 7.12502
rthumb 74.9196 -0.768218
lclavicle 3.55825e-014 -1.59028e-015
lhumerus -42.0186 -45.3569 49.8707
lradius 44.1313
lwrist 39.3705
lhand 23.5563 -5.92185
lfingers 7.12502
lthumb 47.8325 16.3687
rfemur -1.23948 24.0198 26.446
rtibia 3.27551
rfoot -14.8078 -27.6444
rtoes 5.52536
lfemur 4.28512 -40.7857 -8.72761
ltibia -4.81247
lfoot -13.3937 48.1692
ltoes 3.52706
156
root 0.0295124 17.5261 8.50457 7.31673 4.47729 -9.76506
lowerback 1.7278 1.6483 6.84587
upperback -9.45199 2.85181 0.903344
thorax -10.8305 0.845113 -3.15561
lowerneck -9.33337 -5.33769 -2.90018
upperneck 22.9016 -9.18854 9.31699
head 9.31145 -3.61339 2.66923
rclavicle -1.69961e-014 -4.05521e-014
rhumerus -41.139 38.026 -48.6309
rradius 46.5695
rwrist -20.1872
rhand 63.0541 -41.2588
rfingers 7.12502
rthumb 74.975 2.32223
lclavicle -1.69961e-014 -4.05521e-014
lhumerus -40.0002 -45.1865 46.8379
lradius 44.3318
lwrist 39.1842
lhand 24.0088 -6.00168
lfingers 7.12502
lthumb 48.2496 16.0939
rfemur -1.26962 23.9077 26.441
rtibia 3.26346
rfoot -14.8037 -27.584
rtoes 5.56448
lfemur 4.18197 -40.6862 -8.6402
ltibia -4.79213
lfoot -13.2375 48.0603
ltoes 3.4229
157
root 0.0282659 17.5291 8.49723 7.33875 4.58173 -9.7943
lowerback 1.97818 1.62796 6.88053
upperback -9.50391 2.8522 0.893746
thorax -11.0415 0.832184 -3.19602
lowerneck -9.7111 -5.34971 -2.8111
upperneck 23.2358 -9.23105 9.20594
head 9.49425 -3.61293 2.60409
rclavicle -4.01545e-014 -1.66979e-014
rhumerus -40.0301 37.9319 -46.2043
rradius 46.8103
rwrist -20.0665
rhand 64.0908 -41.1261
rfingers 7.12502
rthumb 74.9658 6.31669
lclavicle -4.01545e-014 -1.66979e-014
lhumerus -38.0629 -44.9697 43.9506
lradius 44.5279
lwrist 39.1302
lhand 24.5841 -6.0582
lfingers 7.12502
lthumb 48.779 15.7828
rfemur -1.30823 23.8703 26.4571
rtibia 3.22888
rfoot -14.7785 -27.643
rtoes 5.4523
lfemur 4.02278 -40.704 -8.49681
ltibia -4.77167
lfoot -13.0015 48.0099
ltoes 3.20241
